<svg xmlns="http://www.w3.org/2000/svg" viewBox="0 0 120 120">
  <defs>
    <linearGradient id="g" x1="0" x2="1" y1="0" y2="1">
      <stop offset="0" stop-color="#6aa8ff"/>
      <stop offset="1" stop-color="#4f8cff"/>
    </linearGradient>
  </defs>
  <rect rx="24" ry="24" x="5" y="5" width="110" height="110" fill="#0f121b" stroke="#2b3342" stroke-width="4"/>
  <path d="M60 32a18 18 0 0 1 18 18v6h6a4 4 0 0 1 4 4v26a4 4 0 0 1-4 4H36a4 4 0 0 1-4-4V60a4 4 0 0 1 4-4h6v-6A18 18 0 0 1 60 32zm0 8a10 10 0 0 0-10 10v6h20v-6A10 10 0 0 0 60 40z" fill="url(#g)"/>
</svg>
